<?xml version="1.0" encoding="UTF-8"?>
<!DOCTYPE svg PUBLIC "-//W3C//DTD SVG 1.1//EN" "http://www.w3.org/Graphics/SVG/1.1/DTD/svg11.dtd">
<svg xmlns="http://www.w3.org/2000/svg" version="1.1" width="2089px" height="2605px" xmlns:xlink="http://www.w3.org/1999/xlink">
<g><path style="opacity:0.993" fill="#e0e7f4" d="M 1152.5,304.5 C 1151.51,310.798 1150.68,317.131 1150,323.5C 1146.71,334.116 1139.54,340.616 1128.5,343C 1123.17,343.333 1117.83,343.667 1112.5,344C 1111.43,344.739 1110.76,345.739 1110.5,347C 1119.99,354.253 1129.32,361.753 1138.5,369.5C 1137.17,369.833 1137.17,370.167 1138.5,370.5C 1144.45,381.771 1150.78,392.938 1157.5,404C 1157.17,404.333 1156.83,404.667 1156.5,405C 1157.24,407.529 1158.74,410.029 1161,412.5C 1160.89,415.557 1162.06,417.891 1164.5,419.5C 1163.77,422.463 1164.77,424.963 1167.5,427C 1167.04,427.414 1166.71,427.914 1166.5,428.5C 1169.53,433.908 1171.53,439.408 1172.5,445C 1174.4,449.251 1176.73,453.251 1179.5,457C 1178.45,458.388 1178.28,459.888 1179,461.5C 1182.7,468.649 1185.53,475.815 1187.5,483C 1190.1,484.346 1190.76,486.18 1189.5,488.5C 1192.54,497.145 1195.21,505.978 1197.5,515C 1198.9,517.701 1200.56,520.201 1202.5,522.5C 1202.29,523.086 1201.96,523.586 1201.5,524C 1203.09,526.394 1204.75,528.561 1206.5,530.5C 1206.97,534.281 1208.64,537.448 1211.5,540C 1210.83,540.333 1210.17,540.667 1209.5,541C 1211,542.491 1211.84,544.324 1212,546.5C 1212.65,545.304 1213.15,545.304 1213.5,546.5C 1213.17,547.167 1212.83,547.833 1212.5,548.5C 1216.45,556.72 1219.28,565.053 1221,573.5C 1221.33,573.167 1221.67,572.833 1222,572.5C 1222.04,574.724 1222.21,576.724 1222.5,578.5C 1222.7,582.514 1224.04,586.014 1226.5,589C 1224.2,590.16 1224.54,591.16 1227.5,592C 1226.83,592.333 1226.17,592.667 1225.5,593C 1226.86,597.508 1228.19,602.341 1229.5,607.5C 1228.17,608.167 1228.17,608.833 1229.5,609.5C 1202.95,661.419 1165.61,703.919 1117.5,737C 1073.02,763.331 1024.85,776.164 973,775.5C 898.939,771.869 831.439,749.202 770.5,707.5C 768.475,704.107 766.975,700.44 766,696.5C 765,695.5 764,694.5 763,693.5C 761.109,684.26 758.442,674.926 755,665.5C 754.754,662.11 754.254,658.777 753.5,655.5C 753.709,654.914 754.043,654.414 754.5,654C 749.84,641.369 745.507,628.702 741.5,616C 742.167,615.667 742.833,615.333 743.5,615C 741.21,611.532 740.544,607.865 741.5,604C 739.105,601.436 738.438,598.603 739.5,595.5C 740.724,555.024 744.89,514.691 752,474.5C 755.877,464.06 759.21,453.394 762,442.5C 763.346,436.008 761.18,431.175 755.5,428C 739.172,430.147 724.172,426.813 710.5,418C 704.084,411.93 701.084,404.43 701.5,395.5C 702.535,393.795 702.535,392.128 701.5,390.5C 706.37,380.183 712.203,370.517 719,361.5C 722.672,358.658 726.172,355.658 729.5,352.5C 733.984,350.425 738.317,348.092 742.5,345.5C 743.478,345.977 744.311,346.643 745,347.5C 745.953,345.408 747.286,345.075 749,346.5C 749.667,345.833 750.333,345.167 751,344.5C 752,345.833 753,345.833 754,344.5C 755.101,346.394 756.434,347.061 758,346.5C 764.19,349.437 769.524,353.437 774,358.5C 774.946,363.058 776.946,367.058 780,370.5C 781.659,373.43 781.992,376.43 781,379.5C 785.513,374.918 791.013,370.918 797.5,367.5C 799.01,365.171 800.844,363.171 803,361.5C 804.566,362.061 805.899,361.394 807,359.5C 807.333,359.833 807.667,360.167 808,360.5C 811.012,356.854 814.346,354.521 818,353.5C 821.845,349.604 826.178,347.27 831,346.5C 836.826,342.585 842.826,338.918 849,335.5C 849.772,335.645 850.439,335.978 851,336.5C 855.915,333.055 860.748,330.221 865.5,328C 872.92,325.07 880.254,322.737 887.5,321C 888.035,318.891 889.035,318.391 890.5,319.5C 894.045,318.228 897.545,316.894 901,315.5C 901.333,315.833 901.667,316.167 902,316.5C 903.875,313.534 906.208,312.867 909,314.5C 911.506,311.944 914.339,310.944 917.5,311.5C 922.392,308.449 927.225,307.116 932,307.5C 941.661,304.6 951.494,302.267 961.5,300.5C 964.167,300.833 966.833,301.167 969.5,301.5C 971.5,300.833 973.5,300.167 975.5,299.5C 981.98,299.598 988.48,299.598 995,299.5C 996.473,299.903 997.806,300.57 999,301.5C 999.691,299.109 1000.69,299.109 1002,301.5C 1003.91,301.579 1005.91,301.246 1008,300.5C 1008.61,302.481 1009.61,302.815 1011,301.5C 1019.32,304.491 1027.65,307.491 1036,310.5C 1036.33,310.167 1036.67,309.833 1037,309.5C 1045.16,313.443 1053.5,316.11 1062,317.5C 1062.14,313.495 1062.98,309.662 1064.5,306C 1063.12,303.45 1063.46,301.117 1065.5,299C 1064.27,296.381 1064.6,293.881 1066.5,291.5C 1066.52,289.894 1066.35,288.228 1066,286.5C 1069.73,281.094 1073.07,275.427 1076,269.5C 1076.33,269.833 1076.67,270.167 1077,270.5C 1081.15,266.753 1085.82,263.753 1091,261.5C 1093.33,261.833 1095.67,262.167 1098,262.5C 1098.33,261.833 1098.67,261.167 1099,260.5C 1100.17,261.893 1101.67,262.727 1103.5,263C 1106.23,263.182 1108.89,263.682 1111.5,264.5C 1116.23,267.242 1120.9,270.076 1125.5,273C 1132.28,280.114 1139.11,287.28 1146,294.5C 1146.33,295.5 1146.67,296.5 1147,297.5C 1147.67,296.167 1148.33,296.167 1149,297.5C 1149.49,299.134 1149.66,300.801 1149.5,302.5C 1151.18,302.285 1152.18,302.952 1152.5,304.5 Z"/></g>
<g><path style="opacity:0.922" fill="#a7c3dd" d="M 1152.5,304.5 C 1156.61,311.37 1159.61,318.537 1161.5,326C 1161.16,333.176 1159.82,340.343 1157.5,347.5C 1156.71,349.374 1156.05,351.374 1155.5,353.5C 1152.5,356.845 1149.84,360.511 1147.5,364.5C 1146.68,365.386 1145.68,365.719 1144.5,365.5C 1144.5,366.5 1144.5,367.5 1144.5,368.5C 1142.31,368.704 1140.31,369.37 1138.5,370.5C 1138.5,370.167 1138.5,369.833 1138.5,369.5C 1129.32,361.753 1119.99,354.253 1110.5,347C 1110.76,345.739 1111.43,344.739 1112.5,344C 1117.83,343.667 1123.17,343.333 1128.5,343C 1139.54,340.616 1146.71,334.116 1150,323.5C 1150.68,317.131 1151.51,310.798 1152.5,304.5 Z"/></g>
<g><path style="opacity:0.008" fill="#aac6de" d="M 1157.5,347.5 C 1158.83,348.167 1158.83,348.167 1157.5,347.5 Z"/></g>
<g><path style="opacity:0.016" fill="#a6c3dc" d="M 1155.5,353.5 C 1156.83,354.167 1156.83,354.167 1155.5,353.5 Z"/></g>
<g><path style="opacity:0.909" fill="#a7c3dd" d="M 701.5,395.5 C 701.084,404.43 704.084,411.93 710.5,418C 724.172,426.813 739.172,430.147 755.5,428C 761.18,431.175 763.346,436.008 762,442.5C 759.21,453.394 755.877,464.06 752,474.5C 744.89,514.691 740.724,555.024 739.5,595.5C 738.566,594.228 737.899,592.728 737.5,591C 737.541,585.398 737.875,579.732 738.5,574C 735.997,572.216 735.997,570.549 738.5,569C 737.833,568.667 737.167,568.333 736.5,568C 737.025,560.929 737.025,553.929 736.5,547C 738.042,537.408 739.375,527.741 740.5,518C 740.456,516.236 740.122,514.569 739.5,513C 742.53,510.66 743.197,507.994 741.5,505C 743.238,501.006 743.905,497.006 743.5,493C 746.09,489.596 746.757,485.93 745.5,482C 748.063,477.185 749.063,472.185 748.5,467C 749.357,466.311 750.023,465.478 750.5,464.5C 749.316,462.954 748.316,461.287 747.5,459.5C 745.566,459.901 744.066,460.901 743,462.5C 741.599,460.808 739.766,460.141 737.5,460.5C 737.167,459.167 736.833,459.167 736.5,460.5C 734.648,461.089 732.815,461.756 731,462.5C 728.99,460.432 726.823,459.766 724.5,460.5C 721.986,458.987 719.32,457.654 716.5,456.5C 715.416,455.335 714.583,454.002 714,452.5C 712.512,453.196 711.012,452.862 709.5,451.5C 708.031,449.195 706.364,447.029 704.5,445C 702.264,437.942 699.931,431.275 697.5,425C 697.741,421.731 697.741,418.398 697.5,415C 697.985,411.589 698.652,408.256 699.5,405C 698.833,404.667 698.167,404.333 697.5,404C 698.562,400.953 699.895,398.12 701.5,395.5 Z"/></g>
<g><path style="opacity:0.024" fill="#a6c3dc" d="M 724.5,460.5 C 725.167,460.5 725.5,460.833 725.5,461.5C 725.167,461.167 724.833,460.833 724.5,460.5 Z"/></g>
<g><path style="opacity:0.059" fill="#a6c3dc" d="M 736.5,460.5 C 736.833,460.5 737.167,460.5 737.5,460.5C 737.315,461.17 736.981,461.17 736.5,460.5 Z"/></g>
<g><path style="opacity:0.004" fill="#a6c3dc" d="M 725.5,461.5 C 726.833,462.167 726.833,462.167 725.5,461.5 Z"/></g>
<g><path style="opacity:1" fill="#222a39" d="M 1104.5,512.5 C 1103.71,512.783 1103.04,513.283 1102.5,514C 1103.73,517.8 1103.73,521.633 1102.5,525.5C 1101.83,526.847 1101.83,528.014 1102.5,529C 1098.17,532.719 1093.17,535.552 1087.5,537.5C 1086.4,536.385 1085.23,536.385 1084,537.5C 1076.29,534.461 1070.46,529.294 1066.5,522C 1066.42,520.093 1066.75,518.093 1067.5,516C 1066.8,512.2 1066.13,508.367 1065.5,504.5C 1067.25,499.904 1068.92,494.904 1070.5,489.5C 1072.25,486.749 1074.58,484.749 1077.5,483.5C 1079.82,484.064 1082.15,484.564 1084.5,485C 1087.66,487.275 1090.83,489.442 1094,491.5C 1095.51,495.681 1097.85,499.348 1101,502.5C 1101.98,505.929 1103.15,509.262 1104.5,512.5 Z"/></g>
<g><path style="opacity:1" fill="#979eac" d="M 1104.5,512.5 C 1104.8,513.15 1105.14,513.817 1105.5,514.5C 1105.23,518.595 1104.23,522.262 1102.5,525.5C 1103.73,521.633 1103.73,517.8 1102.5,514C 1103.04,513.283 1103.71,512.783 1104.5,512.5 Z"/></g>
<g><path style="opacity:1" fill="#b9c4d9" d="M 988.5,512.5 C 996.65,514.828 1004.65,517.662 1012.5,521C 1029.68,531.87 1044.85,545.037 1058,560.5C 1063.67,567.843 1069.34,575.177 1075,582.5C 1076.12,584.765 1076.95,587.099 1077.5,589.5C 1078.5,589.5 1079.5,589.5 1080.5,589.5C 1081.54,592.827 1082.7,596.161 1084,599.5C 1092.89,612.919 1101.55,626.586 1110,640.5C 1111.66,645.472 1113.16,650.472 1114.5,655.5C 1112.04,671.304 1108.87,686.971 1105,702.5C 1102.67,705.833 1100.33,709.167 1098,712.5C 1074.77,732.911 1046.93,744.245 1014.5,746.5C 996.275,745.623 978.275,742.457 960.5,737C 955.595,734.021 950.595,731.187 945.5,728.5C 941.48,725.314 937.98,721.647 935,717.5C 927.487,699.977 922.487,681.644 920,662.5C 919.838,650.164 919.338,637.998 918.5,626C 920.005,619.954 920.338,613.787 919.5,607.5C 920.539,598.685 921.705,589.685 923,580.5C 925.321,571.849 927.654,563.183 930,554.5C 939.888,527.112 959.388,513.112 988.5,512.5 Z"/></g>
<g><path style="opacity:0.024" fill="#e0e8f4" d="M 1206.5,529.5 C 1207.83,530.167 1207.83,530.167 1206.5,529.5 Z"/></g>
<g><path style="opacity:1" fill="#232b3a" d="M 842.5,537.5 C 847.462,537.322 851.295,539.322 854,543.5C 858.462,550.551 861.962,558.051 864.5,566C 864.431,568.701 864.431,571.368 864.5,574C 863.194,577.083 862.194,580.25 861.5,583.5C 857.983,589.615 852.983,591.448 846.5,589C 840.065,582.779 835.899,575.279 834,566.5C 833.626,560.19 833.46,554.024 833.5,548C 834.255,545.825 835.088,543.659 836,541.5C 838.301,540.24 840.468,538.907 842.5,537.5 Z"/></g>
<g><path style="opacity:0.016" fill="#e0e8f4" d="M 1217.5,556.5 C 1218.83,557.167 1218.83,557.167 1217.5,556.5 Z"/></g>
<g><path style="opacity:1" fill="#1e2635" d="M 1010.5,560.5 C 1020.93,559.06 1028.93,562.894 1034.5,572C 1034.23,576.086 1034.06,580.586 1034,585.5C 1033.5,586 1033,586.5 1032.5,587C 1035.17,590.42 1035,593.586 1032,596.5C 1030.64,600.405 1029.81,604.405 1029.5,608.5C 1028.5,608.5 1027.5,608.5 1026.5,608.5C 1026.5,609.833 1026.5,611.167 1026.5,612.5C 1024.06,612.119 1023.39,612.786 1024.5,614.5C 1021.34,620.827 1016.67,625.66 1010.5,629C 994.742,632.629 981.075,628.963 969.5,618C 963.57,611.4 958.403,604.233 954,596.5C 953.333,594.833 953.333,593.167 954,591.5C 968.592,573.322 987.425,562.989 1010.5,560.5 Z"/></g>
<g><path style="opacity:0.031" fill="#e0e8f4" d="M 1222.5,577.5 C 1223.83,578.167 1223.83,578.167 1222.5,577.5 Z"/></g>
<g><path style="opacity:0.982" fill="#a7c3dc" d="M 1229.5,607.5 C 1229.45,610.388 1229.78,613.388 1230.5,616.5C 1229.17,616.833 1229.17,617.167 1230.5,617.5C 1231.71,623.918 1231.04,630.751 1228.5,638C 1229.31,638.308 1229.97,638.808 1230.5,639.5C 1230.1,641.434 1229.1,642.934 1227.5,644C 1228.33,645.909 1228,647.742 1226.5,649.5C 1225.17,649.833 1225.17,650.167 1226.5,650.5C 1225.03,655.577 1223.03,660.411 1220.5,665C 1219.38,669.749 1217.05,674.249 1213.5,678.5C 1211.67,683.121 1209,687.288 1205.5,691C 1205.96,691.414 1206.29,691.914 1206.5,692.5C 1205.33,693.584 1204,694.417 1202.5,695C 1202.11,696.525 1202.11,698.192 1202.5,700C 1201.58,700.374 1200.75,700.874 1200,701.5C 1192.63,710.542 1185.63,719.875 1179,729.5C 1178.2,734.094 1176.7,738.761 1174.5,743.5C 1176.01,746.811 1175.34,749.644 1172.5,752C 1172.83,752.333 1173.17,752.667 1173.5,753C 1165.71,755.857 1158.38,759.357 1151.5,763.5C 1151.9,766.044 1151.23,768.211 1149.5,770C 1150.17,771 1150.83,772 1151.5,773C 1150.87,775.8 1149.87,778.467 1148.5,781C 1148.35,785.387 1148.69,789.554 1149.5,793.5C 1141.64,799.361 1133.8,805.361 1126,811.5C 1124.74,823.644 1122.74,835.644 1120,847.5C 1118.5,848.667 1117,849.833 1115.5,851C 1116.42,851.278 1117.08,851.778 1117.5,852.5C 1115.83,852.5 1114.17,852.5 1112.5,852.5C 1096.74,854.071 1081.07,855.404 1065.5,856.5C 1046.22,855.629 1027.22,855.629 1008.5,856.5C 1005.71,855.523 1002.71,855.19 999.5,855.5C 999.167,855.5 998.833,855.5 998.5,855.5C 997.571,854.685 996.571,853.852 995.5,853C 974.168,850.167 953.501,844.834 933.5,837C 909.768,826.925 886.101,816.758 862.5,806.5C 861.833,806.5 861.5,806.167 861.5,805.5C 861.249,803.83 860.582,802.33 859.5,801C 860.376,796.167 860.376,791.5 859.5,787C 850.698,783.105 841.698,778.772 832.5,774C 826.567,769.741 820.9,765.074 815.5,760C 814.552,759.517 813.552,759.351 812.5,759.5C 812.5,758.5 812.5,757.5 812.5,756.5C 810.217,756.392 808.217,755.559 806.5,754C 791.189,740.476 779.189,724.976 770.5,707.5C 831.439,749.202 898.939,771.869 973,775.5C 1024.85,776.164 1073.02,763.331 1117.5,737C 1165.61,703.919 1202.95,661.419 1229.5,609.5C 1229.5,608.833 1229.5,608.167 1229.5,607.5 Z"/></g>
<g><path style="opacity:0.082" fill="#a6c3dc" d="M 1230.5,616.5 C 1231.83,617.167 1231.83,617.167 1230.5,616.5 Z"/></g>
<g><path style="opacity:0.055" fill="#a6c3dc" d="M 1226.5,649.5 C 1227.83,650.167 1227.83,650.167 1226.5,649.5 Z"/></g>
<g><path style="opacity:0.071" fill="#a6c3dc" d="M 1213.5,678.5 C 1214.83,679.167 1214.83,679.167 1213.5,678.5 Z"/></g>
<g><path style="opacity:0.873" fill="#dfe7f3" d="M 1149.5,793.5 C 1146.26,800.311 1147.93,804.145 1154.5,805C 1155.83,806 1157.17,807 1158.5,808C 1156.25,810.736 1154.25,813.569 1152.5,816.5C 1146.02,815.623 1142.69,818.623 1142.5,825.5C 1142.04,831.629 1141.54,837.629 1141,843.5C 1134.12,848.852 1126.29,851.852 1117.5,852.5C 1117.08,851.778 1116.42,851.278 1115.5,851C 1117,849.833 1118.5,848.667 1120,847.5C 1122.74,835.644 1124.74,823.644 1126,811.5C 1133.8,805.361 1141.64,799.361 1149.5,793.5 Z"/></g>
<g><path style="opacity:0.866" fill="#e75134" d="M 861.5,805.5 C 861.5,806.167 861.833,806.5 862.5,806.5C 862.701,810.903 862.701,815.236 862.5,819.5C 859.936,819.021 857.436,818.355 855,817.5C 845.826,818.543 836.659,819.877 827.5,821.5C 828.731,820.282 829.898,818.949 831,817.5C 831.561,818.022 832.228,818.355 833,818.5C 837.05,817.195 840.884,814.861 844.5,811.5C 845.086,811.709 845.586,812.043 846,812.5C 851.017,809.791 856.184,807.457 861.5,805.5 Z"/></g>
<g><path style="opacity:0.998" fill="#e0e7f4" d="M 1471.5,913.5 C 1473.88,950.833 1471.38,987.833 1464,1024.5C 1459.61,1042.92 1454.94,1061.25 1450,1079.5C 1439.88,1110.4 1426.55,1139.73 1410,1167.5C 1394.46,1190.71 1374.96,1209.88 1351.5,1225C 1333.12,1234.68 1313.45,1240.18 1292.5,1241.5C 1281.92,1240.44 1271.58,1238.27 1261.5,1235C 1246.71,1229.21 1236.21,1219.04 1230,1204.5C 1228.85,1200.55 1228.01,1196.55 1227.5,1192.5C 1219.08,1189.67 1215.41,1192.67 1216.5,1201.5C 1210.79,1203.88 1208.95,1208.21 1211,1214.5C 1214.93,1228.96 1219.27,1243.3 1224,1257.5C 1241.44,1287.62 1266.61,1308.12 1299.5,1319C 1306.48,1320.44 1313.48,1321.77 1320.5,1323C 1336.8,1324.54 1353.13,1325.38 1369.5,1325.5C 1371.2,1335.21 1373.04,1345.21 1375,1355.5C 1375.65,1354.3 1376.15,1354.3 1376.5,1355.5C 1375.74,1357.45 1375.41,1359.28 1375.5,1361C 1379.59,1373.4 1382.92,1385.73 1385.5,1398C 1385.5,1400.33 1385.5,1402.67 1385.5,1405C 1386.61,1406.57 1387.95,1407.9 1389.5,1409C 1388.31,1413.6 1388.97,1418.27 1391.5,1423C 1390.54,1424.15 1390.88,1425.15 1392.5,1426C 1392.17,1427.67 1391.83,1429.33 1391.5,1431C 1394.11,1437.87 1396.11,1444.87 1397.5,1452C 1396.79,1453.42 1396.46,1454.76 1396.5,1456C 1397.99,1461.59 1399.33,1467.26 1400.5,1473C 1399.52,1474.82 1399.68,1476.32 1401,1477.5C 1402.09,1484.82 1403.09,1492.15 1404,1499.5C 1404.37,1500.42 1404.87,1501.25 1405.5,1502C 1404.95,1503.4 1404.62,1504.73 1404.5,1506C 1405.31,1506.31 1405.97,1506.81 1406.5,1507.5C 1406.83,1510.89 1406.49,1514.06 1405.5,1517C 1406.17,1517.67 1406.83,1518.33 1407.5,1519C 1406.95,1520.4 1406.62,1521.73 1406.5,1523C 1407.28,1525.74 1407.78,1528.57 1408,1531.5C 1409.45,1532.91 1409.29,1534.41 1407.5,1536C 1407.84,1542.75 1409.17,1549.41 1411.5,1556C 1410.61,1560.04 1410.95,1564.04 1412.5,1568C 1411.92,1568.89 1411.59,1569.89 1411.5,1571C 1412.12,1579.39 1413.12,1587.72 1414.5,1596C 1413.88,1598.64 1414.22,1601.31 1415.5,1604C 1415.32,1611.43 1415.32,1618.77 1415.5,1626C 1417.39,1628.81 1418.05,1631.64 1417.5,1634.5C 1418.81,1635.8 1418.81,1637.13 1417.5,1638.5C 1418.03,1639.19 1418.69,1639.69 1419.5,1640C 1418.69,1640.31 1418.03,1640.81 1417.5,1641.5C 1418.43,1645.43 1418.77,1649.43 1418.5,1653.5C 1400.98,1695.85 1378.15,1735.18 1350,1771.5C 1329.76,1792.74 1307.92,1812.24 1284.5,1830C 1271.81,1838.03 1259.15,1846.03 1246.5,1854C 1222.3,1863.81 1197.96,1873.48 1173.5,1883C 1119.77,1899.11 1064.77,1905.11 1008.5,1901C 977.091,1899.3 946.091,1894.97 915.5,1888C 895.985,1887.36 877.319,1883.03 859.5,1875C 832.842,1868.01 807.508,1857.67 783.5,1844C 714.827,1805.5 656.827,1754.67 609.5,1691.5C 608.972,1690.28 608.305,1689.11 607.5,1688C 609.531,1683.98 609.864,1679.81 608.5,1675.5C 608.529,1673.97 609.196,1672.8 610.5,1672C 608.575,1667.89 608.575,1663.89 610.5,1660C 610.414,1650.59 610.414,1640.93 610.5,1631C 611.578,1616.99 613.245,1602.82 615.5,1588.5C 614.593,1585.59 614.927,1582.76 616.5,1580C 616.167,1579 615.833,1578 615.5,1577C 616.415,1570.77 617.748,1564.44 619.5,1558C 618.14,1556.06 618.473,1554.4 620.5,1553C 618.343,1551.92 618.176,1550.75 620,1549.5C 620.696,1544.79 621.529,1540.13 622.5,1535.5C 622.291,1534.91 621.957,1534.41 621.5,1534C 622.87,1532.56 623.87,1530.89 624.5,1529C 623.412,1524.42 623.412,1519.76 624.5,1515C 626.201,1507.59 628.201,1500.26 630.5,1493C 631.344,1489.82 631.344,1486.82 630.5,1484C 634.758,1470.81 637.925,1457.31 640,1443.5C 640.5,1443 641,1442.5 641.5,1442C 641.367,1439.27 641.367,1436.6 641.5,1434C 642.974,1423.89 645.641,1413.89 649.5,1404C 649.167,1403.67 648.833,1403.33 648.5,1403C 649.623,1399.2 650.957,1395.53 652.5,1392C 651.978,1391.44 651.645,1390.77 651.5,1390C 653.326,1385.41 654.993,1381.08 656.5,1377C 656.167,1376 655.833,1375 655.5,1374C 657.8,1369.79 659.8,1365.46 661.5,1361C 660.833,1360.67 660.167,1360.33 659.5,1360C 661.904,1359.49 662.571,1358.33 661.5,1356.5C 663.729,1347.65 666.729,1338.82 670.5,1330C 670.043,1329.59 669.709,1329.09 669.5,1328.5C 671.11,1326.51 672.443,1324.34 673.5,1322C 673.167,1321.67 672.833,1321.33 672.5,1321C 674.121,1318.83 674.955,1316.33 675,1313.5C 676.574,1310.68 678.074,1307.84 679.5,1305C 679.043,1304.59 678.709,1304.09 678.5,1303.5C 679.686,1300.4 681.02,1297.4 682.5,1294.5C 681.651,1292.49 682.318,1290.82 684.5,1289.5C 684.069,1288.71 683.735,1287.87 683.5,1287C 688.087,1276.91 692.087,1266.57 695.5,1256C 695.043,1255.59 694.709,1255.09 694.5,1254.5C 698.43,1246.86 701.597,1238.52 704,1229.5C 704.448,1227.78 705.282,1227.11 706.5,1227.5C 705.712,1225.67 706.212,1224 708,1222.5C 724.144,1179.84 742.144,1137.51 762,1095.5C 764.4,1087.62 767.566,1080.12 771.5,1073C 771.167,1072.67 770.833,1072.33 770.5,1072C 771.416,1071.63 772.25,1071.13 773,1070.5C 773.987,1066.2 775.82,1062.37 778.5,1059C 778.167,1058.67 777.833,1058.33 777.5,1058C 779.155,1056.56 779.822,1054.72 779.5,1052.5C 781.942,1052.65 782.609,1051.81 781.5,1050C 785.5,1046 785.5,1042 781.5,1038C 783.193,1036.75 784.527,1035.25 785.5,1033.5C 790.961,1037.77 796.627,1041.94 802.5,1046C 809.317,1049.24 816.151,1052.41 823,1055.5C 824.924,1055.35 826.758,1055.35 828.5,1055.5C 832.008,1056.97 835.341,1058.97 838.5,1061.5C 837.754,1062.74 837.421,1064.07 837.5,1065.5C 836.768,1066.81 835.934,1068.14 835,1069.5C 832.483,1082.25 829.65,1094.92 826.5,1107.5C 822.043,1125.43 819.043,1144.27 817.5,1164C 818.727,1181.93 826.727,1196.43 841.5,1207.5C 855.076,1215.81 869.742,1220.47 885.5,1221.5C 888.953,1223.06 892.619,1224.06 896.5,1224.5C 898.164,1223.78 899.831,1224.11 901.5,1225.5C 902.324,1223.25 903.324,1223.09 904.5,1225C 907.361,1225.2 910.028,1225.37 912.5,1225.5C 915.609,1224.91 918.609,1225.57 921.5,1227.5C 924.319,1227.48 927.153,1227.15 930,1226.5C 931.667,1227.17 933.333,1227.83 935,1228.5C 938.802,1228.55 942.635,1228.55 946.5,1228.5C 949.034,1230.73 951.701,1230.73 954.5,1228.5C 955.478,1228.98 956.311,1229.64 957,1230.5C 958.194,1228.47 959.694,1228.14 961.5,1229.5C 963.282,1226.62 965.115,1226.28 967,1228.5C 968.23,1224.75 970.563,1223.09 974,1223.5C 974.483,1222.55 974.649,1221.55 974.5,1220.5C 976.5,1219.83 978.5,1219.17 980.5,1218.5C 980.351,1217.45 980.517,1216.45 981,1215.5C 984.634,1210.6 988.134,1205.6 991.5,1200.5C 990.701,1197.72 991.701,1195.56 994.5,1194C 994.043,1193.59 993.709,1193.09 993.5,1192.5C 996.521,1186.11 998.521,1179.44 999.5,1172.5C 999.944,1170.89 1000.94,1169.72 1002.5,1169C 1002.03,1164.4 1003.03,1159.9 1005.5,1155.5C 1005,1154.28 1004.67,1153.12 1004.5,1152C 1007.21,1148.53 1007.88,1144.7 1006.5,1140.5C 1008.19,1137.78 1009.69,1134.78 1011,1131.5C 1013.44,1115.34 1016.77,1099.01 1021,1082.5C 1024.81,1081.49 1028.65,1080.82 1032.5,1080.5C 1037.3,1082.14 1041.97,1081.8 1046.5,1079.5C 1047.17,1080.17 1047.83,1080.83 1048.5,1081.5C 1051.37,1080.88 1054.2,1080.21 1057,1079.5C 1060.74,1080.02 1064.41,1079.36 1068,1077.5C 1071.68,1079.28 1075.18,1079.28 1078.5,1077.5C 1079.09,1077.71 1079.59,1078.04 1080,1078.5C 1090.67,1075.64 1101.34,1073.31 1112,1071.5C 1112.33,1071.83 1112.67,1072.17 1113,1072.5C 1123.4,1068.3 1133.23,1064.63 1142.5,1061.5C 1152.1,1058.01 1161.1,1053.51 1169.5,1048C 1176.79,1041.74 1184.45,1036.91 1192.5,1033.5C 1196.23,1039.15 1201.07,1043.82 1207,1047.5C 1210.02,1051.02 1212.86,1054.69 1215.5,1058.5C 1217.36,1060.86 1218.53,1063.53 1219,1066.5C 1221.99,1067.28 1222.82,1068.94 1221.5,1071.5C 1223.68,1074.71 1225.68,1078.05 1227.5,1081.5C 1227.29,1082.09 1226.96,1082.59 1226.5,1083C 1231.91,1095.35 1237.08,1107.85 1242,1120.5C 1242.71,1118.92 1243.54,1117.42 1244.5,1116C 1244.63,1113.4 1244.63,1110.73 1244.5,1108C 1246.45,1104.1 1248.12,1100.1 1249.5,1096C 1249.04,1095.59 1248.71,1095.09 1248.5,1094.5C 1251.77,1088.54 1253.43,1082.71 1253.5,1077C 1255,1075.66 1256,1074 1256.5,1072C 1257.82,1064.61 1260.15,1057.27 1263.5,1050C 1263.17,1049.67 1262.83,1049.33 1262.5,1049C 1263.83,1046.33 1265.17,1043.67 1266.5,1041C 1265.37,1039.98 1265.7,1039.32 1267.5,1039C 1268.64,1032.44 1270.97,1025.94 1274.5,1019.5C 1274.29,1018.91 1273.96,1018.41 1273.5,1018C 1276.41,1012.4 1278.74,1006.9 1280.5,1001.5C 1279.33,1000.09 1279.67,998.928 1281.5,998C 1287.7,978.063 1294.7,958.396 1302.5,939C 1302.36,938.228 1302.02,937.561 1301.5,937C 1302.77,933.633 1304.43,930.466 1306.5,927.5C 1306.29,926.914 1305.96,926.414 1305.5,926C 1307.68,921.643 1309.68,917.143 1311.5,912.5C 1311.29,911.914 1310.96,911.414 1310.5,911C 1312.44,909.184 1313.11,907.184 1312.5,905C 1320.54,884.397 1328.87,863.897 1337.5,843.5C 1341.91,836.17 1347.24,829.003 1353.5,822C 1359.59,817.574 1365.92,813.574 1372.5,810C 1374.89,809.697 1377.06,808.863 1379,807.5C 1380.58,807.493 1382.25,807.826 1384,808.5C 1384.69,807.643 1385.52,806.977 1386.5,806.5C 1391.4,805.965 1396.56,806.631 1402,808.5C 1402.77,808.355 1403.44,808.022 1404,807.5C 1412.27,812.109 1420.27,817.109 1428,822.5C 1438.07,833.62 1446.4,845.953 1453,859.5C 1456.05,866.439 1459.22,873.273 1462.5,880C 1462.17,880.333 1461.83,880.667 1461.5,881C 1466.13,888.382 1468.79,896.216 1469.5,904.5C 1471.13,907.276 1471.8,910.276 1471.5,913.5 Z"/></g>
<g><path style="opacity:1" fill="#e0e6f3" d="M 862.5,806.5 C 886.101,816.758 909.768,826.925 933.5,837C 953.501,844.834 974.168,850.167 995.5,853C 996.571,853.852 997.571,854.685 998.5,855.5C 982.818,855.254 967.151,854.587 951.5,853.5C 948.579,853.524 945.746,853.857 943,854.5C 942.25,853.874 941.416,853.374 940.5,853C 932.915,852.463 925.415,851.63 918,850.5C 917.275,851.059 916.442,851.392 915.5,851.5C 905.594,849.189 895.594,847.523 885.5,846.5C 881.101,844.916 877.101,842.582 873.5,839.5C 871.349,835.853 868.683,832.687 865.5,830C 866.554,828.612 866.72,827.112 866,825.5C 864.569,823.636 863.403,821.636 862.5,819.5C 862.701,815.236 862.701,810.903 862.5,806.5 Z"/></g>
<g><path style="opacity:0.919" fill="#f3aa3f" d="M 1152.5,816.5 C 1153.65,818.755 1155.31,820.588 1157.5,822C 1158.45,822.617 1159.28,822.451 1160,821.5C 1160.46,822.094 1160.63,822.761 1160.5,823.5C 1154.57,823.442 1148.57,824.108 1142.5,825.5C 1142.69,818.623 1146.02,815.623 1152.5,816.5 Z"/></g>
<g><path style="opacity:0.987" fill="#177582" d="M 862.5,819.5 C 863.403,821.636 864.569,823.636 866,825.5C 866.72,827.112 866.554,828.612 865.5,830C 868.683,832.687 871.349,835.853 873.5,839.5C 877.101,842.582 881.101,844.916 885.5,846.5C 871.856,853.654 862.69,864.654 858,879.5C 856.346,884.448 854.846,889.448 853.5,894.5C 853.709,895.086 854.043,895.586 854.5,896C 853.812,901.468 853.145,906.968 852.5,912.5C 853.115,915.039 853.782,917.539 854.5,920C 854.534,925.136 854.534,930.303 854.5,935.5C 855.04,936.748 855.707,937.915 856.5,939C 855.184,942.453 855.517,945.786 857.5,949C 856.978,949.561 856.645,950.228 856.5,951C 858.769,961.869 858.769,972.869 856.5,984C 856.957,984.414 857.291,984.914 857.5,985.5C 851.203,1007.82 842.869,1029.32 832.5,1050C 832.966,1051.3 832.966,1052.8 832.5,1054.5C 831.041,1054.43 829.708,1054.77 828.5,1055.5C 826.758,1055.35 824.924,1055.35 823,1055.5C 816.151,1052.41 809.317,1049.24 802.5,1046C 796.627,1041.94 790.961,1037.77 785.5,1033.5C 784.737,1031.63 783.737,1029.96 782.5,1028.5C 780.557,1025.76 779.057,1022.76 778,1019.5C 777.311,1013.46 776.811,1007.96 776.5,1003C 779.337,1000.48 780.004,997.481 778.5,994C 780.049,992.786 781.215,991.286 782,989.5C 783,985.833 784,982.167 785,978.5C 785.333,978.833 785.667,979.167 786,979.5C 787.376,972.776 789.876,966.61 793.5,961C 792.978,960.439 792.645,959.772 792.5,959C 794.463,956.912 795.796,954.412 796.5,951.5C 796.069,950.707 795.735,949.873 795.5,949C 797.757,946.089 798.423,942.922 797.5,939.5C 797.846,938.304 798.346,938.304 799,939.5C 799.684,938.216 799.517,937.049 798.5,936C 800.168,934.433 800.502,932.766 799.5,931C 801.943,926.664 801.943,922.33 799.5,918C 800.672,917.581 801.672,916.915 802.5,916C 801.4,908.729 801.4,901.729 802.5,895C 799.557,893.541 799.224,891.874 801.5,890C 798.553,874.023 799.386,857.523 804,840.5C 807.154,837.348 809.487,833.681 811,829.5C 811.333,829.833 811.667,830.167 812,830.5C 813.876,829.391 815.709,828.391 817.5,827.5C 820.861,825.489 824.194,823.489 827.5,821.5C 836.659,819.877 845.826,818.543 855,817.5C 857.436,818.355 859.936,819.021 862.5,819.5 Z"/></g>
<g><path style="opacity:0.984" fill="#187583" d="M 1160.5,823.5 C 1165.11,826.153 1169.44,829.32 1173.5,833C 1177.07,836.815 1180.4,840.815 1183.5,845C 1183.17,845.333 1182.83,845.667 1182.5,846C 1183.63,849.3 1184.63,852.634 1185.5,856C 1185.17,856.333 1184.83,856.667 1184.5,857C 1185.31,857.308 1185.97,857.808 1186.5,858.5C 1183.93,861.644 1183.93,864.81 1186.5,868C 1186.69,871.192 1186.35,874.192 1185.5,877C 1186.36,877.689 1187.02,878.522 1187.5,879.5C 1187.15,880.696 1186.65,880.696 1186,879.5C 1185.34,882.534 1185.84,885.367 1187.5,888C 1185.36,890.173 1185.03,892.673 1186.5,895.5C 1185.17,895.833 1185.17,896.167 1186.5,896.5C 1185.43,901.008 1186.1,905.342 1188.5,909.5C 1188.02,910.478 1187.36,911.311 1186.5,912C 1189.4,916.321 1190.07,920.654 1188.5,925C 1189.68,928.89 1191.01,932.724 1192.5,936.5C 1191.83,938.101 1191.5,939.601 1191.5,941C 1193.84,947.352 1195.84,953.518 1197.5,959.5C 1196.28,960.803 1196.62,961.803 1198.5,962.5C 1198.07,963.293 1197.74,964.127 1197.5,965C 1199.57,968.04 1200.91,971.373 1201.5,975C 1201.04,975.414 1200.71,975.914 1200.5,976.5C 1201.54,978.523 1202.54,980.523 1203.5,982.5C 1202.75,984.241 1202.42,985.908 1202.5,987.5C 1203.63,991.636 1204.3,995.636 1204.5,999.5C 1203.72,1003.77 1202.72,1008.1 1201.5,1012.5C 1202.26,1014.45 1202.59,1016.28 1202.5,1018C 1199.06,1018.22 1198.72,1019.22 1201.5,1021C 1200.53,1022.68 1199.53,1024.18 1198.5,1025.5C 1197.66,1026.67 1196.99,1028 1196.5,1029.5C 1194.81,1030.53 1193.47,1031.86 1192.5,1033.5C 1184.45,1036.91 1176.79,1041.74 1169.5,1048C 1161.1,1053.51 1152.1,1058.01 1142.5,1061.5C 1142.89,1058.32 1142.89,1055.32 1142.5,1052.5C 1144.31,1035.98 1142.98,1019.31 1138.5,1002.5C 1138.71,1001.91 1139.04,1001.41 1139.5,1001C 1136.49,988.752 1132.99,976.919 1129,965.5C 1125.57,945.087 1126.57,925.087 1132,905.5C 1132.42,904.328 1133.09,903.328 1134,902.5C 1135.32,896.421 1136.16,890.421 1136.5,884.5C 1133.32,877.228 1129.65,870.228 1125.5,863.5C 1123.15,860.823 1120.49,858.49 1117.5,856.5C 1116.91,856.709 1116.41,857.043 1116,857.5C 1114.9,856.051 1113.73,854.718 1112.5,853.5C 1112.5,853.167 1112.5,852.833 1112.5,852.5C 1114.17,852.5 1115.83,852.5 1117.5,852.5C 1126.29,851.852 1134.12,848.852 1141,843.5C 1141.54,837.629 1142.04,831.629 1142.5,825.5C 1148.57,824.108 1154.57,823.442 1160.5,823.5 Z"/></g>
<g><path style="opacity:0.008" fill="#167583" d="M 817.5,827.5 C 816.833,826.167 816.833,826.167 817.5,827.5 Z"/></g>
<g><path style="opacity:1" fill="#f6aa3b" d="M 885.5,846.5 C 895.594,847.523 905.594,849.189 915.5,851.5C 916.442,851.392 917.275,851.059 918,850.5C 925.415,851.63 932.915,852.463 940.5,853C 941.416,853.374 942.25,853.874 943,854.5C 945.746,853.857 948.579,853.524 951.5,853.5C 967.151,854.587 982.818,855.254 998.5,855.5C 998.833,855.5 999.167,855.5 999.5,855.5C 1001.21,858.509 1003.54,860.842 1006.5,862.5C 1007.17,862.5 1007.5,862.833 1007.5,863.5C 1007.4,866.549 1007.4,869.715 1007.5,873C 1006.83,874 1006.17,875 1005.5,876C 1005.93,881.854 1005.93,887.521 1005.5,893C 1007.38,896.292 1007.38,899.792 1005.5,903.5C 1006.28,910.403 1006.28,917.236 1005.5,924C 1006.06,931.135 1007.39,938.135 1009.5,945C 1008.15,946.574 1007.49,948.407 1007.5,950.5C 1007.93,957.852 1008.6,965.352 1009.5,973C 1008.72,975.522 1008.39,978.189 1008.5,981C 1009.17,981.667 1009.83,982.333 1010.5,983C 1009.28,991.721 1009.94,1000.55 1012.5,1009.5C 1012.29,1010.09 1011.96,1010.59 1011.5,1011C 1013.1,1024.19 1013.44,1036.69 1012.5,1048.5C 1013.43,1054.68 1014.43,1060.85 1015.5,1067C 1014.69,1068.31 1013.69,1069.48 1012.5,1070.5C 1013.66,1073.48 1014.66,1076.48 1015.5,1079.5C 991.937,1079.71 968.437,1079.71 945,1079.5C 937.647,1078.66 930.314,1077.66 923,1076.5C 922.667,1076.83 922.333,1077.17 922,1077.5C 920.215,1076.76 918.382,1076.09 916.5,1075.5C 911.624,1076.68 906.291,1076.02 900.5,1073.5C 899.914,1073.71 899.414,1074.04 899,1074.5C 891.839,1073.69 884.672,1072.69 877.5,1071.5C 863.669,1070.28 850.335,1068.28 837.5,1065.5C 837.421,1064.07 837.754,1062.74 838.5,1061.5C 835.341,1058.97 832.008,1056.97 828.5,1055.5C 829.708,1054.77 831.041,1054.43 832.5,1054.5C 832.966,1052.8 832.966,1051.3 832.5,1050C 842.869,1029.32 851.203,1007.82 857.5,985.5C 857.291,984.914 856.957,984.414 856.5,984C 858.769,972.869 858.769,961.869 856.5,951C 856.645,950.228 856.978,949.561 857.5,949C 855.517,945.786 855.184,942.453 856.5,939C 855.707,937.915 855.04,936.748 854.5,935.5C 854.534,930.303 854.534,925.136 854.5,920C 853.782,917.539 853.115,915.039 852.5,912.5C 853.145,906.968 853.812,901.468 854.5,896C 854.043,895.586 853.709,895.086 853.5,894.5C 854.846,889.448 856.346,884.448 858,879.5C 862.69,864.654 871.856,853.654 885.5,846.5 Z"/></g>
<g><path style="opacity:1" fill="#ae4a36" d="M 1112.5,852.5 C 1112.5,852.833 1112.5,853.167 1112.5,853.5C 1109.41,855.713 1106.07,857.379 1102.5,858.5C 1099.27,857.632 1095.94,857.632 1092.5,858.5C 1092.36,860.124 1093.03,861.29 1094.5,862C 1093.55,862.483 1092.55,862.649 1091.5,862.5C 1091.5,861.167 1091.5,859.833 1091.5,858.5C 1080.84,859.405 1070.17,860.405 1059.5,861.5C 1041.37,860.705 1024.04,860.705 1007.5,861.5C 1007.22,859.585 1007.55,857.919 1008.5,856.5C 1027.22,855.629 1046.22,855.629 1065.5,856.5C 1081.07,855.404 1096.74,854.071 1112.5,852.5 Z"/></g>
<g><path style="opacity:1" fill="#b89042" d="M 999.5,855.5 C 1002.71,855.19 1005.71,855.523 1008.5,856.5C 1007.55,857.919 1007.22,859.585 1007.5,861.5C 1006.83,861.5 1006.5,861.833 1006.5,862.5C 1003.54,860.842 1001.21,858.509 999.5,855.5 Z"/></g>
<g><path style="opacity:1" fill="#e95133" d="M 1112.5,853.5 C 1113.73,854.718 1114.9,856.051 1116,857.5C 1116.41,857.043 1116.91,856.709 1117.5,856.5C 1120.49,858.49 1123.15,860.823 1125.5,863.5C 1129.65,870.228 1133.32,877.228 1136.5,884.5C 1136.16,890.421 1135.32,896.421 1134,902.5C 1133.09,903.328 1132.42,904.328 1132,905.5C 1126.57,925.087 1125.57,945.087 1129,965.5C 1132.99,976.919 1136.49,988.752 1139.5,1001C 1139.04,1001.41 1138.71,1001.91 1138.5,1002.5C 1142.98,1019.31 1144.31,1035.98 1142.5,1052.5C 1141.41,1054.74 1139.74,1056.58 1137.5,1058C 1129.43,1061.53 1121.26,1064.7 1113,1067.5C 1112.67,1067.17 1112.33,1066.83 1112,1066.5C 1108.75,1067.82 1105.42,1068.82 1102,1069.5C 1097.27,1069.31 1092.94,1068.97 1089,1068.5C 1088,1069.17 1087,1069.83 1086,1070.5C 1082.23,1071.27 1078.56,1071.27 1075,1070.5C 1071.44,1072.31 1067.61,1073.64 1063.5,1074.5C 1062.83,1074.17 1062.17,1073.83 1061.5,1073.5C 1058.3,1074.13 1055.13,1074.79 1052,1075.5C 1048.79,1074.41 1045.62,1074.41 1042.5,1075.5C 1041.5,1075 1040.5,1074.5 1039.5,1074C 1042.37,1073.11 1042.71,1072.27 1040.5,1071.5C 1034.51,1072.94 1028.51,1073.44 1022.5,1073C 1022.83,1073.33 1023.17,1073.67 1023.5,1074C 1022.54,1075.73 1021.87,1077.56 1021.5,1079.5C 1019.5,1079.5 1017.5,1079.5 1015.5,1079.5C 1014.66,1076.48 1013.66,1073.48 1012.5,1070.5C 1013.69,1069.48 1014.69,1068.31 1015.5,1067C 1014.43,1060.85 1013.43,1054.68 1012.5,1048.5C 1013.44,1036.69 1013.1,1024.19 1011.5,1011C 1011.96,1010.59 1012.29,1010.09 1012.5,1009.5C 1009.94,1000.55 1009.28,991.721 1010.5,983C 1009.83,982.333 1009.17,981.667 1008.5,981C 1008.39,978.189 1008.72,975.522 1009.5,973C 1008.6,965.352 1007.93,957.852 1007.5,950.5C 1007.49,948.407 1008.15,946.574 1009.5,945C 1007.39,938.135 1006.06,931.135 1005.5,924C 1006.28,917.236 1006.28,910.403 1005.5,903.5C 1007.38,899.792 1007.38,896.292 1005.5,893C 1005.93,887.521 1005.93,881.854 1005.5,876C 1006.17,875 1006.83,874 1007.5,873C 1007.4,869.715 1007.4,866.549 1007.5,863.5C 1015.19,869.693 1023.53,874.86 1032.5,879C 1034.17,879.167 1035.83,879.333 1037.5,879.5C 1056.8,875.681 1075.8,870.514 1094.5,864C 1097.44,862.454 1100.11,860.621 1102.5,858.5C 1106.07,857.379 1109.41,855.713 1112.5,853.5 Z"/></g>
<g><path style="opacity:1" fill="#ae442e" d="M 1102.5,858.5 C 1100.11,860.621 1097.44,862.454 1094.5,864C 1075.8,870.514 1056.8,875.681 1037.5,879.5C 1035.83,879.333 1034.17,879.167 1032.5,879C 1023.53,874.86 1015.19,869.693 1007.5,863.5C 1007.5,862.833 1007.17,862.5 1006.5,862.5C 1006.5,861.833 1006.83,861.5 1007.5,861.5C 1024.04,860.705 1041.37,860.705 1059.5,861.5C 1070.17,860.405 1080.84,859.405 1091.5,858.5C 1091.5,859.833 1091.5,861.167 1091.5,862.5C 1092.55,862.649 1093.55,862.483 1094.5,862C 1093.03,861.29 1092.36,860.124 1092.5,858.5C 1095.94,857.632 1099.27,857.632 1102.5,858.5 Z"/></g>
<g><path style="opacity:1" fill="#212938" d="M 1367.5,864.5 C 1379.25,864.434 1385.92,870.434 1387.5,882.5C 1387.03,886.307 1386.03,889.974 1384.5,893.5C 1382.61,893.297 1381.11,893.963 1380,895.5C 1372.44,897.676 1365.44,896.009 1359,890.5C 1358.16,888.649 1357.33,886.816 1356.5,885C 1356.07,881.524 1356.57,878.024 1358,874.5C 1361.4,871.271 1364.57,867.938 1367.5,864.5 Z"/></g>
<g><path style="opacity:1" fill="#212938" d="M 1411.5,871.5 C 1414.85,871.335 1418.18,871.502 1421.5,872C 1431.88,879.242 1433.05,887.742 1425,897.5C 1423.03,898.64 1421.19,899.973 1419.5,901.5C 1416.83,901.5 1414.17,901.5 1411.5,901.5C 1410,900.248 1408.33,899.248 1406.5,898.5C 1406.01,895.204 1404.85,892.204 1403,889.5C 1401.76,884.306 1402.76,879.64 1406,875.5C 1408.17,874.512 1410,873.179 1411.5,871.5 Z"/></g>
<g><path style="opacity:0.004" fill="#167583" d="M 1186.5,895.5 C 1187.83,896.167 1187.83,896.167 1186.5,895.5 Z"/></g>
<g><path style="opacity:1" fill="#252d3c" d="M 1344.5,919.5 C 1343.5,919.5 1342.5,919.5 1341.5,919.5C 1340.79,921.672 1339.79,923.672 1338.5,925.5C 1329.17,925.189 1325.67,919.856 1328,909.5C 1330.19,899.059 1335.52,896.725 1344,902.5C 1345.31,904.134 1346.14,905.968 1346.5,908C 1345.78,911.837 1345.11,915.67 1344.5,919.5 Z"/></g>
<g><path style="opacity:1" fill="#969eab" d="M 1344.5,919.5 C 1342.93,921.114 1342.26,923.114 1342.5,925.5C 1341.17,925.5 1339.83,925.5 1338.5,925.5C 1339.79,923.672 1340.79,921.672 1341.5,919.5C 1342.5,919.5 1343.5,919.5 1344.5,919.5 Z"/></g>
<g><path style="opacity:1" fill="#202837" d="M 1440.5,917.5 C 1449.8,916.487 1455.8,920.487 1458.5,929.5C 1456.17,938.888 1450.33,944.555 1441,946.5C 1435.51,944.858 1433.01,941.192 1433.5,935.5C 1432.87,928.196 1435.2,922.196 1440.5,917.5 Z"/></g>
<g><path style="opacity:1" fill="#1e2635" d="M 1407.5,983.5 C 1404.17,984.246 1402.01,986.246 1401,989.5C 1400.67,989.167 1400.33,988.833 1400,988.5C 1399.67,989.833 1399.33,991.167 1399,992.5C 1398.33,989.833 1397.67,989.833 1397,992.5C 1394.87,991.695 1393.03,992.362 1391.5,994.5C 1392.03,995.192 1392.69,995.692 1393.5,996C 1388.52,996.995 1383.52,997.828 1378.5,998.5C 1375.59,998.424 1373.09,997.424 1371,995.5C 1370.59,995.957 1370.09,996.291 1369.5,996.5C 1366.47,993.984 1363.13,991.984 1359.5,990.5C 1360.17,990.167 1360.83,989.833 1361.5,989.5C 1359,987.945 1356.66,986.278 1354.5,984.5C 1349.49,973.827 1346.49,962.493 1345.5,950.5C 1348.15,940.341 1353.49,931.841 1361.5,925C 1368.09,921.581 1374.92,918.748 1382,916.5C 1388.67,916.846 1395.51,917.346 1402.5,918C 1407.8,919.371 1411.64,922.538 1414,927.5C 1416,932.167 1418,936.833 1420,941.5C 1419.78,945.794 1420.28,950.128 1421.5,954.5C 1420.93,956.059 1420.26,957.559 1419.5,959C 1420.55,960.388 1420.72,961.888 1420,963.5C 1416.3,969.737 1412.46,975.903 1408.5,982C 1409.71,983.107 1409.38,983.607 1407.5,983.5 Z"/></g>
<g><path style="opacity:0.051" fill="#167583" d="M 1198.5,964.5 C 1199.83,965.167 1199.83,965.167 1198.5,964.5 Z"/></g>
<g><path style="opacity:0.016" fill="#a6c3dc" d="M 1481.5,970.5 C 1482.83,971.167 1482.83,971.167 1481.5,970.5 Z"/></g>
<g><path style="opacity:0.012" fill="#a6c3dc" d="M 1482.5,985.5 C 1483.83,986.167 1483.83,986.167 1482.5,985.5 Z"/></g>
<g><path style="opacity:1" fill="#2f3746" d="M 1407.5,983.5 C 1406.27,985.297 1405.6,987.297 1405.5,989.5C 1404.45,989.351 1403.45,989.517 1402.5,990C 1400.15,993.351 1397.15,996.018 1393.5,998C 1389.83,998.666 1386.33,999.833 1383,1001.5C 1380.18,1000.23 1377.34,1000.23 1374.5,1001.5C 1364.44,999.772 1357.78,994.106 1354.5,984.5C 1356.66,986.278 1359,987.945 1361.5,989.5C 1360.83,989.833 1360.17,990.167 1359.5,990.5C 1363.13,991.984 1366.47,993.984 1369.5,996.5C 1370.09,996.291 1370.59,995.957 1371,995.5C 1373.09,997.424 1375.59,998.424 1378.5,998.5C 1383.52,997.828 1388.52,996.995 1393.5,996C 1392.69,995.692 1392.03,995.192 1391.5,994.5C 1393.03,992.362 1394.87,991.695 1397,992.5C 1397.67,989.833 1398.33,989.833 1399,992.5C 1399.33,991.167 1399.67,989.833 1400,988.5C 1400.33,988.833 1400.67,989.167 1401,989.5C 1402.01,986.246 1404.17,984.246 1407.5,983.5 Z"/></g>
<g><path style="opacity:0.981" fill="#a7c3dd" d="M 1471.5,913.5 C 1472.72,915.828 1473.72,918.328 1474.5,921C 1473.59,923.906 1474.25,926.573 1476.5,929C 1476.17,930 1475.83,931 1475.5,932C 1476.17,933.333 1476.83,934.667 1477.5,936C 1477.17,937 1476.83,938 1476.5,939C 1477.57,942.643 1478.57,946.643 1479.5,951C 1479.18,953.351 1478.85,955.684 1478.5,958C 1479.17,959 1479.83,960 1480.5,961C 1480.64,963.041 1480.31,965.208 1479.5,967.5C 1479.99,969.026 1480.66,970.359 1481.5,971.5C 1481.71,973.144 1481.38,974.644 1480.5,976C 1482.76,978.59 1483.09,981.423 1481.5,984.5C 1482.23,990.826 1482.9,997.159 1483.5,1003.5C 1482.49,1012.36 1482.49,1020.86 1483.5,1029C 1481.08,1031.11 1481.08,1033.11 1483.5,1035C 1481.84,1036.7 1481.51,1038.87 1482.5,1041.5C 1481.71,1046.96 1480.71,1052.46 1479.5,1058C 1479.17,1063.66 1479.17,1069.16 1479.5,1074.5C 1478.59,1075.33 1477.92,1076.33 1477.5,1077.5C 1478.31,1082.02 1478.31,1086.69 1477.5,1091.5C 1477.07,1093.38 1476.07,1094.88 1474.5,1096C 1474.66,1097.96 1474.99,1099.96 1475.5,1102C 1473.34,1103.31 1473.01,1104.98 1474.5,1107C 1473.37,1110.3 1472.37,1113.63 1471.5,1117C 1471.83,1117.33 1472.17,1117.67 1472.5,1118C 1471.31,1121.96 1470.65,1125.79 1470.5,1129.5C 1469.17,1129.83 1469.17,1130.17 1470.5,1130.5C 1470.65,1133.44 1469.65,1136.27 1467.5,1139C 1467.49,1142.02 1467.49,1145.02 1467.5,1148C 1466.52,1148.38 1465.85,1149.21 1465.5,1150.5C 1466.1,1155.57 1465.1,1160.4 1462.5,1165C 1463.68,1167.79 1463.02,1170.12 1460.5,1172C 1460.94,1173.53 1461.28,1175.03 1461.5,1176.5C 1458.5,1184.54 1455.5,1192.54 1452.5,1200.5C 1452.62,1201.11 1452.96,1201.44 1453.5,1201.5C 1451.24,1207.91 1448.58,1214.24 1445.5,1220.5C 1444.57,1222.1 1444.57,1223.6 1445.5,1225C 1443.5,1227.62 1441.5,1230.29 1439.5,1233C 1440.17,1233.33 1440.83,1233.67 1441.5,1234C 1439.97,1238.3 1437.3,1242.3 1433.5,1246C 1436.03,1248.07 1435.86,1248.91 1433,1248.5C 1432.38,1249.45 1432.55,1250.28 1433.5,1251C 1432.5,1251.33 1431.5,1251.67 1430.5,1252C 1431.17,1252.99 1431.17,1254.15 1430.5,1255.5C 1426.79,1259.63 1424.13,1263.96 1422.5,1268.5C 1414.91,1284.35 1403.07,1298.02 1387,1309.5C 1386.67,1309.17 1386.33,1308.83 1386,1308.5C 1385.52,1309.45 1385.35,1310.45 1385.5,1311.5C 1381.83,1311.33 1379.33,1312.99 1378,1316.5C 1376.93,1315.72 1375.76,1315.89 1374.5,1317C 1372.5,1319.33 1370.5,1321.67 1368.5,1324C 1369.06,1324.38 1369.39,1324.88 1369.5,1325.5C 1353.13,1325.38 1336.8,1324.54 1320.5,1323C 1313.48,1321.77 1306.48,1320.44 1299.5,1319C 1266.61,1308.12 1241.44,1287.62 1224,1257.5C 1219.27,1243.3 1214.93,1228.96 1211,1214.5C 1208.95,1208.21 1210.79,1203.88 1216.5,1201.5C 1215.41,1192.67 1219.08,1189.67 1227.5,1192.5C 1228.01,1196.55 1228.85,1200.55 1230,1204.5C 1236.21,1219.04 1246.71,1229.21 1261.5,1235C 1271.58,1238.27 1281.92,1240.44 1292.5,1241.5C 1313.45,1240.18 1333.12,1234.68 1351.5,1225C 1374.96,1209.88 1394.46,1190.71 1410,1167.5C 1426.55,1139.73 1439.88,1110.4 1450,1079.5C 1454.94,1061.25 1459.61,1042.92 1464,1024.5C 1471.38,987.833 1473.88,950.833 1471.5,913.5 Z"/></g>
<g><path style="opacity:0.008" fill="#167583" d="M 1198.5,1025.5 C 1199.83,1026.17 1199.83,1026.17 1198.5,1025.5 Z"/></g>
<g><path style="opacity:0.004" fill="#167583" d="M 782.5,1028.5 C 781.833,1029.17 781.833,1029.17 782.5,1028.5 Z"/></g>
<g><path style="opacity:0.02" fill="#167583" d="M 1196.5,1029.5 C 1197.83,1030.17 1197.83,1030.17 1196.5,1029.5 Z"/></g>
<g><path style="opacity:1" fill="#e9583b" d="M 1142.5,1052.5 C 1142.89,1055.32 1142.89,1058.32 1142.5,1061.5C 1133.23,1064.63 1123.4,1068.3 1113,1072.5C 1112.67,1072.17 1112.33,1071.83 1112,1071.5C 1101.34,1073.31 1090.67,1075.64 1080,1078.5C 1079.59,1078.04 1079.09,1077.71 1078.5,1077.5C 1075.18,1079.28 1071.68,1079.28 1068,1077.5C 1064.41,1079.36 1060.74,1080.02 1057,1079.5C 1054.2,1080.21 1051.37,1080.88 1048.5,1081.5C 1047.83,1080.83 1047.17,1080.17 1046.5,1079.5C 1041.97,1081.8 1037.3,1082.14 1032.5,1080.5C 1028.94,1079.58 1025.27,1079.24 1021.5,1079.5C 1021.87,1077.56 1022.54,1075.73 1023.5,1074C 1023.17,1073.67 1022.83,1073.33 1022.5,1073C 1028.51,1073.44 1034.51,1072.94 1040.5,1071.5C 1042.71,1072.27 1042.37,1073.11 1039.5,1074C 1040.5,1074.5 1041.5,1075 1042.5,1075.5C 1045.62,1074.41 1048.79,1074.41 1052,1075.5C 1055.13,1074.79 1058.3,1074.13 1061.5,1073.5C 1062.17,1073.83 1062.83,1074.17 1063.5,1074.5C 1067.61,1073.64 1071.44,1072.31 1075,1070.5C 1078.56,1071.27 1082.23,1071.27 1086,1070.5C 1087,1069.83 1088,1069.17 1089,1068.5C 1092.94,1068.97 1097.27,1069.31 1102,1069.5C 1105.42,1068.82 1108.75,1067.82 1112,1066.5C 1112.33,1066.83 1112.67,1067.17 1113,1067.5C 1121.26,1064.7 1129.43,1061.53 1137.5,1058C 1139.74,1056.58 1141.41,1054.74 1142.5,1052.5 Z"/></g>
<g><path style="opacity:1" fill="#1a7582" d="M 837.5,1065.5 C 850.335,1068.28 863.669,1070.28 877.5,1071.5C 884.672,1072.69 891.839,1073.69 899,1074.5C 899.414,1074.04 899.914,1073.71 900.5,1073.5C 906.291,1076.02 911.624,1076.68 916.5,1075.5C 918.382,1076.09 920.215,1076.76 922,1077.5C 922.333,1077.17 922.667,1076.83 923,1076.5C 930.314,1077.66 937.647,1078.66 945,1079.5C 968.437,1079.71 991.937,1079.71 1015.5,1079.5C 1017.5,1079.5 1019.5,1079.5 1021.5,1079.5C 1025.27,1079.24 1028.94,1079.58 1032.5,1080.5C 1028.65,1080.82 1024.81,1081.49 1021,1082.5C 1016.77,1099.01 1013.44,1115.34 1011,1131.5C 1009.69,1134.78 1008.19,1137.78 1006.5,1140.5C 1002.49,1139.91 998.492,1139.24 994.5,1138.5C 993.833,1138.83 993.167,1139.17 992.5,1139.5C 983.902,1138.25 975.402,1136.58 967,1134.5C 965.856,1134.91 964.689,1135.24 963.5,1135.5C 951.639,1133.59 939.806,1131.26 928,1128.5C 927.586,1128.96 927.086,1129.29 926.5,1129.5C 923.215,1129.2 920.048,1127.87 917,1125.5C 916.667,1125.83 916.333,1126.17 916,1126.5C 908.991,1124.83 901.991,1123.16 895,1121.5C 894.667,1121.83 894.333,1122.17 894,1122.5C 891,1121.5 888,1120.5 885,1119.5C 884.667,1119.83 884.333,1120.17 884,1120.5C 874.904,1119.15 865.904,1117.15 857,1114.5C 856.275,1115.06 855.442,1115.39 854.5,1115.5C 845.108,1112.82 835.775,1110.15 826.5,1107.5C 829.65,1094.92 832.483,1082.25 835,1069.5C 835.934,1068.14 836.768,1066.81 837.5,1065.5 Z"/></g>
<g><path style="opacity:1" fill="#f6ab3b" d="M 826.5,1107.5 C 835.775,1110.15 845.108,1112.82 854.5,1115.5C 855.442,1115.39 856.275,1115.06 857,1114.5C 865.904,1117.15 874.904,1119.15 884,1120.5C 884.333,1120.17 884.667,1119.83 885,1119.5C 888,1120.5 891,1121.5 894,1122.5C 894.333,1122.17 894.667,1121.83 895,1121.5C 901.991,1123.16 908.991,1124.83 916,1126.5C 916.333,1126.17 916.667,1125.83 917,1125.5C 920.048,1127.87 923.215,1129.2 926.5,1129.5C 927.086,1129.29 927.586,1128.96 928,1128.5C 939.806,1131.26 951.639,1133.59 963.5,1135.5C 964.689,1135.24 965.856,1134.91 967,1134.5C 975.402,1136.58 983.902,1138.25 992.5,1139.5C 993.167,1139.17 993.833,1138.83 994.5,1138.5C 998.492,1139.24 1002.49,1139.91 1006.5,1140.5C 1007.88,1144.7 1007.21,1148.53 1004.5,1152C 1004.67,1153.12 1005,1154.28 1005.5,1155.5C 1003.03,1159.9 1002.03,1164.4 1002.5,1169C 1000.94,1169.72 999.944,1170.89 999.5,1172.5C 997.914,1175.92 996.247,1179.59 994.5,1183.5C 989.873,1186.93 988.206,1191.1 989.5,1196C 985.623,1205.6 979.29,1213.1 970.5,1218.5C 969.268,1219.14 967.935,1219.31 966.5,1219C 967.051,1220.4 967.384,1221.73 967.5,1223C 965.412,1224.03 963.245,1224.86 961,1225.5C 958.598,1224.85 956.098,1224.85 953.5,1225.5C 946.549,1224.99 939.715,1223.99 933,1222.5C 929.822,1222.96 926.655,1222.3 923.5,1220.5C 922.77,1221.93 921.77,1223.1 920.5,1224C 917.635,1224.18 914.969,1224.68 912.5,1225.5C 910.028,1225.37 907.361,1225.2 904.5,1225C 903.324,1223.09 902.324,1223.25 901.5,1225.5C 899.831,1224.11 898.164,1223.78 896.5,1224.5C 892.619,1224.06 888.953,1223.06 885.5,1221.5C 869.742,1220.47 855.076,1215.81 841.5,1207.5C 826.727,1196.43 818.727,1181.93 817.5,1164C 819.043,1144.27 822.043,1125.43 826.5,1107.5 Z"/></g>
<g><path style="opacity:0.043" fill="#a6c3dc" d="M 1470.5,1129.5 C 1471.83,1130.17 1471.83,1130.17 1470.5,1129.5 Z"/></g>
<g><path style="opacity:0.024" fill="#a6c3dc" d="M 1454.5,1199.5 C 1455.83,1200.17 1455.83,1200.17 1454.5,1199.5 Z"/></g>
<g><path style="opacity:0.008" fill="#a6c3dc" d="M 1454.5,1200.5 C 1453.83,1201.17 1453.83,1201.17 1454.5,1200.5 Z"/></g>
<g><path style="opacity:1" fill="#f5af48" d="M 999.5,1172.5 C 998.521,1179.44 996.521,1186.11 993.5,1192.5C 993.709,1193.09 994.043,1193.59 994.5,1194C 991.701,1195.56 990.701,1197.72 991.5,1200.5C 988.134,1205.6 984.634,1210.6 981,1215.5C 980.517,1216.45 980.351,1217.45 980.5,1218.5C 978.5,1219.17 976.5,1219.83 974.5,1220.5C 974.649,1221.55 974.483,1222.55 974,1223.5C 970.563,1223.09 968.23,1224.75 967,1228.5C 965.115,1226.28 963.282,1226.62 961.5,1229.5C 959.694,1228.14 958.194,1228.47 957,1230.5C 956.311,1229.64 955.478,1228.98 954.5,1228.5C 951.701,1230.73 949.034,1230.73 946.5,1228.5C 942.635,1228.55 938.802,1228.55 935,1228.5C 933.333,1227.83 931.667,1227.17 930,1226.5C 927.153,1227.15 924.319,1227.48 921.5,1227.5C 918.609,1225.57 915.609,1224.91 912.5,1225.5C 914.969,1224.68 917.635,1224.18 920.5,1224C 921.77,1223.1 922.77,1221.93 923.5,1220.5C 926.655,1222.3 929.822,1222.96 933,1222.5C 939.715,1223.99 946.549,1224.99 953.5,1225.5C 956.098,1224.85 958.598,1224.85 961,1225.5C 963.245,1224.86 965.412,1224.03 967.5,1223C 967.384,1221.73 967.051,1220.4 966.5,1219C 967.935,1219.31 969.268,1219.14 970.5,1218.5C 979.29,1213.1 985.623,1205.6 989.5,1196C 988.206,1191.1 989.873,1186.93 994.5,1183.5C 996.247,1179.59 997.914,1175.92 999.5,1172.5 Z"/></g>
<g><path style="opacity:0.035" fill="#a6c3dc" d="M 1430.5,1255.5 C 1431.83,1256.17 1431.83,1256.17 1430.5,1255.5 Z"/></g>
<g><path style="opacity:0.027" fill="#a6c3dc" d="M 1422.5,1268.5 C 1423.83,1269.17 1423.83,1269.17 1422.5,1268.5 Z"/></g>
<g><path style="opacity:1" fill="#a7c3dd" d="M 704.5,1420.5 C 711.166,1421.54 714,1425.54 713,1432.5C 725.59,1467.28 739.923,1501.28 756,1534.5C 768.769,1557.02 783.769,1578.02 801,1597.5C 827.505,1624.64 859.672,1636.14 897.5,1632C 909.993,1630.07 920.993,1625.07 930.5,1617C 938.412,1606.51 946.078,1595.84 953.5,1585C 958.763,1582.32 963.263,1583.15 967,1587.5C 970.402,1593.35 971.402,1599.68 970,1606.5C 966.666,1619.5 962.333,1632.17 957,1644.5C 952.231,1652.27 947.898,1660.27 944,1668.5C 927.153,1692.58 903.987,1702.74 874.5,1699C 864.963,1697.86 855.629,1695.86 846.5,1693C 826.62,1684.61 808.954,1672.94 793.5,1658C 768.457,1634.29 747.957,1607.12 732,1576.5C 724.742,1559.64 717.742,1542.64 711,1525.5C 705.731,1509.3 701.565,1492.8 698.5,1476C 698.488,1462.55 698.655,1449.05 699,1435.5C 700.262,1431.69 700.929,1427.69 701,1423.5C 702.518,1422.84 703.685,1421.84 704.5,1420.5 Z"/></g>
<g><path style="opacity:0.031" fill="#e0e8f4" d="M 1413.5,1580.5 C 1414.83,1581.17 1414.83,1581.17 1413.5,1580.5 Z"/></g>
<g><path style="opacity:0.022" fill="#e0e8f4" d="M 1417.5,1634.5 C 1417.37,1633.76 1417.54,1633.09 1418,1632.5C 1418.69,1633.44 1418.53,1634.1 1417.5,1634.5 Z"/></g>
<g><path style="opacity:0.993" fill="#a7c3dd" d="M 1418.5,1653.5 C 1418.56,1654.37 1418.9,1655.37 1419.5,1656.5C 1418.17,1657.17 1418.17,1657.83 1419.5,1658.5C 1420.31,1663.74 1420.31,1668.91 1419.5,1674C 1419.98,1676.9 1420.98,1679.57 1422.5,1682C 1421.69,1682.31 1421.03,1682.81 1420.5,1683.5C 1421.12,1686.04 1421.78,1688.54 1422.5,1691C 1422.37,1693.25 1422.04,1695.42 1421.5,1697.5C 1422.39,1703.67 1423.39,1709.84 1424.5,1716C 1424.48,1722.51 1424.48,1729.01 1424.5,1735.5C 1425.17,1735.83 1425.83,1736.17 1426.5,1736.5C 1425.96,1737.75 1425.29,1738.91 1424.5,1740C 1424.32,1741.66 1424.99,1743.33 1426.5,1745C 1425.18,1747.94 1425.18,1750.77 1426.5,1753.5C 1425.63,1756.27 1425.63,1758.94 1426.5,1761.5C 1425.17,1761.83 1425.17,1762.17 1426.5,1762.5C 1427.04,1768.02 1427.37,1773.69 1427.5,1779.5C 1426.17,1779.83 1426.17,1780.17 1427.5,1780.5C 1428.43,1782.77 1428.77,1784.94 1428.5,1787C 1428.24,1788.26 1427.57,1789.26 1426.5,1790C 1427.83,1791.33 1427.83,1792.67 1426.5,1794C 1427.67,1794.42 1428.67,1795.09 1429.5,1796C 1427.25,1798.86 1427.25,1801.53 1429.5,1804C 1428.69,1804.31 1428.03,1804.81 1427.5,1805.5C 1428.42,1820.36 1428.75,1835.69 1428.5,1851.5C 1426.62,1852.2 1426.28,1853.2 1427.5,1854.5C 1426.64,1859.39 1425.64,1864.22 1424.5,1869C 1425.8,1871.5 1425.46,1873.83 1423.5,1876C 1424.47,1878.23 1424.8,1880.73 1424.5,1883.5C 1422.16,1886.05 1421.83,1888.88 1423.5,1892C 1422.66,1894.1 1421.66,1896.1 1420.5,1898C 1421.06,1898.38 1421.39,1898.88 1421.5,1899.5C 1420.17,1899.83 1420.17,1900.17 1421.5,1900.5C 1420.39,1902.71 1420.39,1904.88 1421.5,1907C 1420.26,1908.15 1419.26,1909.49 1418.5,1911C 1418.57,1913.62 1418.9,1916.29 1419.5,1919C 1419.36,1921.15 1418.36,1922.82 1416.5,1924C 1417.23,1928.74 1416.56,1933.74 1414.5,1939C 1414.76,1940.26 1415.43,1941.26 1416.5,1942C 1414.61,1943.97 1413.28,1946.3 1412.5,1949C 1413.77,1951.04 1413.44,1952.88 1411.5,1954.5C 1413.02,1956.16 1412.69,1957.32 1410.5,1958C 1411.02,1958.56 1411.36,1959.23 1411.5,1960C 1410.75,1962.5 1410.08,1965 1409.5,1967.5C 1408.17,1967.83 1408.17,1968.17 1409.5,1968.5C 1408.99,1973.37 1407.66,1978.03 1405.5,1982.5C 1406,1983.72 1406.33,1984.88 1406.5,1986C 1404.4,1987.34 1403.73,1989 1404.5,1991C 1403.81,1993.91 1402.81,1996.74 1401.5,1999.5C 1402.37,2001.92 1401.7,2004.08 1399.5,2006C 1399.83,2006.33 1400.17,2006.67 1400.5,2007C 1399.17,2010.33 1397.83,2013.67 1396.5,2017C 1396.83,2017.33 1397.17,2017.67 1397.5,2018C 1395.92,2020.5 1394.59,2023.17 1393.5,2026C 1393.64,2026.77 1393.98,2027.44 1394.5,2028C 1393.33,2028.5 1392.5,2029.33 1392,2030.5C 1388.84,2040.52 1385.67,2050.85 1382.5,2061.5C 1381.17,2061.83 1381.17,2062.17 1382.5,2062.5C 1381.94,2064.8 1381.44,2067.13 1381,2069.5C 1380.67,2069.17 1380.33,2068.83 1380,2068.5C 1378.89,2070.4 1378.72,2072.23 1379.5,2074C 1378.79,2076.54 1377.46,2078.71 1375.5,2080.5C 1375.71,2081.09 1376.04,2081.59 1376.5,2082C 1375.77,2083.4 1375.27,2084.9 1375,2086.5C 1374.67,2085.83 1374.33,2085.17 1374,2084.5C 1373.08,2091.58 1370.91,2098.25 1367.5,2104.5C 1366.97,2105.19 1366.31,2105.69 1365.5,2106C 1366.36,2106.69 1367.02,2107.52 1367.5,2108.5C 1362.59,2118.48 1357.59,2128.31 1352.5,2138C 1352.89,2139.81 1352.89,2141.47 1352.5,2143C 1348.8,2148 1346.13,2153.5 1344.5,2159.5C 1341.97,2160.52 1341.97,2161.68 1344.5,2163C 1343.55,2163.48 1342.55,2163.65 1341.5,2163.5C 1340.43,2169.05 1338.43,2174.21 1335.5,2179C 1335.83,2179.33 1336.17,2179.67 1336.5,2180C 1333.38,2182.85 1331.38,2186.35 1330.5,2190.5C 1329.5,2191 1328.5,2191.5 1327.5,2192C 1327.83,2192.33 1328.17,2192.67 1328.5,2193C 1322.41,2203.62 1316.74,2214.46 1311.5,2225.5C 1310.17,2225.83 1310.17,2226.17 1311.5,2226.5C 1309.96,2230.03 1308.13,2233.37 1306,2236.5C 1305.51,2237.79 1305.34,2239.13 1305.5,2240.5C 1304.45,2240.35 1303.45,2240.52 1302.5,2241C 1302.11,2242.53 1302.11,2244.19 1302.5,2246C 1301.83,2247.33 1300.83,2248.33 1299.5,2249C 1299.83,2249.33 1300.17,2249.67 1300.5,2250C 1299.69,2251.11 1299.03,2252.28 1298.5,2253.5C 1291.87,2266.65 1285.2,2279.98 1278.5,2293.5C 1281.7,2293.74 1283.53,2295.41 1284,2298.5C 1288.48,2302.88 1291.81,2307.54 1294,2312.5C 1294.92,2321.51 1291.42,2328.17 1283.5,2332.5C 1279.89,2333.64 1276.56,2335.3 1273.5,2337.5C 1271.9,2336.45 1271.06,2337.12 1271,2339.5C 1270,2339.17 1269,2338.83 1268,2338.5C 1266.67,2339.17 1265.33,2339.83 1264,2340.5C 1261.82,2340.57 1259.82,2340.24 1258,2339.5C 1255.55,2340.2 1253.21,2341.2 1251,2342.5C 1246.35,2341.18 1241.85,2341.18 1237.5,2342.5C 1235.91,2341.59 1234.41,2341.59 1233,2342.5C 1231.85,2340.04 1230.51,2340.04 1229,2342.5C 1227.89,2341.29 1226.72,2341.29 1225.5,2342.5C 1224.83,2341.83 1224.17,2341.17 1223.5,2340.5C 1222.57,2341.64 1221.74,2341.64 1221,2340.5C 1220.67,2341.17 1220.33,2341.83 1220,2342.5C 1217.6,2339.95 1215.27,2339.95 1213,2342.5C 1212.68,2340.7 1212.02,2340.37 1211,2341.5C 1210,2340.83 1209,2340.17 1208,2339.5C 1206.45,2339.37 1204.79,2339.7 1203,2340.5C 1200.98,2338.69 1198.65,2338.69 1196,2340.5C 1194.86,2339.64 1193.53,2338.64 1192,2337.5C 1190.61,2339.72 1188.94,2339.72 1187,2337.5C 1186.62,2338.06 1186.12,2338.39 1185.5,2338.5C 1184.65,2337.38 1183.65,2337.38 1182.5,2338.5C 1182.17,2337.17 1181.83,2337.17 1181.5,2338.5C 1179.56,2338.13 1177.73,2337.46 1176,2336.5C 1173.73,2337.93 1171.73,2337.6 1170,2335.5C 1169.67,2336.17 1169.33,2336.83 1169,2337.5C 1167.22,2335 1165.55,2335 1164,2337.5C 1163.3,2335.97 1162.13,2334.97 1160.5,2334.5C 1158.63,2334.95 1156.8,2335.28 1155,2335.5C 1154.15,2333.88 1153.15,2333.54 1152,2334.5C 1148.47,2331.86 1144.97,2331.19 1141.5,2332.5C 1139.44,2330.74 1137.27,2330.41 1135,2331.5C 1133.18,2329.35 1131.68,2329.35 1130.5,2331.5C 1128.19,2330.79 1126.02,2329.79 1124,2328.5C 1122,2328.5 1120,2328.5 1118,2328.5C 1116.45,2326.85 1114.78,2326.52 1113,2327.5C 1108.1,2326.49 1103.27,2324.49 1098.5,2321.5C 1097.91,2321.71 1097.41,2322.04 1097,2322.5C 1094.81,2320.04 1092.81,2317.38 1091,2314.5C 1091.2,2311.77 1091.04,2309.11 1090.5,2306.5C 1091.84,2302.83 1092.17,2299.16 1091.5,2295.5C 1092.08,2292.14 1092.74,2288.8 1093.5,2285.5C 1093.29,2284.91 1092.96,2284.41 1092.5,2284C 1093.44,2276.7 1094.44,2269.37 1095.5,2262C 1094.21,2255.52 1094.54,2248.85 1096.5,2242C 1096.5,2240 1096.5,2238 1096.5,2236C 1095.83,2235.67 1095.17,2235.33 1094.5,2235C 1095.17,2232.67 1095.83,2230.33 1096.5,2228C 1096.24,2219.59 1096.24,2210.92 1096.5,2202C 1095.83,2199.67 1095.17,2197.33 1094.5,2195C 1095.57,2194.26 1096.24,2193.26 1096.5,2192C 1095.59,2187.49 1095.59,2182.82 1096.5,2178C 1095.74,2176.56 1095.07,2175.06 1094.5,2173.5C 1094.33,2167.04 1094.66,2160.87 1095.5,2155C 1094.83,2152.33 1094.17,2149.67 1093.5,2147C 1094.05,2145.6 1094.38,2144.27 1094.5,2143C 1093.64,2142.31 1092.98,2141.48 1092.5,2140.5C 1092.94,2135.01 1093.27,2129.84 1093.5,2125C 1091.35,2122.84 1091.02,2120.34 1092.5,2117.5C 1092.51,2115.41 1091.85,2113.57 1090.5,2112C 1091.31,2111.69 1091.97,2111.19 1092.5,2110.5C 1091.91,2108.62 1091.24,2106.78 1090.5,2105C 1090.47,2100.53 1090.47,2096.03 1090.5,2091.5C 1090.02,2085.89 1089.02,2080.39 1087.5,2075C 1088.3,2073.21 1088.63,2071.55 1088.5,2070C 1087.69,2069.69 1087.03,2069.19 1086.5,2068.5C 1088.07,2064.08 1087.4,2059.75 1084.5,2055.5C 1085.06,2053.76 1085.39,2052.1 1085.5,2050.5C 1085,2046.82 1084,2043.32 1082.5,2040C 1082.83,2039.67 1083.17,2039.33 1083.5,2039C 1081.78,2037.96 1079.95,2037.46 1078,2037.5C 1075.27,2038.7 1072.61,2039.7 1070,2040.5C 1068.61,2039.19 1067.61,2039.52 1067,2041.5C 1066.67,2040.83 1066.33,2040.17 1066,2039.5C 1064.38,2040.1 1062.88,2040.77 1061.5,2041.5C 1059.12,2041.78 1056.96,2041.78 1055,2041.5C 1054.33,2042.17 1053.67,2042.83 1053,2043.5C 1051.33,2043.5 1049.67,2043.5 1048,2043.5C 1047.69,2044.31 1047.19,2044.97 1046.5,2045.5C 1044.17,2045.55 1042,2045.22 1040,2044.5C 1038.49,2045.26 1037.15,2046.26 1036,2047.5C 1033.27,2047.37 1030.6,2047.37 1028,2047.5C 1022.07,2049.76 1016.24,2051.43 1010.5,2052.5C 1009.52,2052.02 1008.69,2051.36 1008,2050.5C 1004.01,2051.01 1000.01,2052.01 996,2053.5C 995.667,2052.83 995.333,2052.17 995,2051.5C 993.921,2053.39 992.587,2053.73 991,2052.5C 988.392,2053.3 985.726,2054.3 983,2055.5C 979.608,2054.4 975.941,2054.4 972,2055.5C 970.919,2053.23 969.419,2053.07 967.5,2055C 966.356,2059.21 965.022,2063.38 963.5,2067.5C 962.566,2070.96 962.566,2074.63 963.5,2078.5C 962.029,2082.58 960.696,2086.75 959.5,2091C 960.022,2091.56 960.355,2092.23 960.5,2093C 959.136,2095.98 958.47,2098.81 958.5,2101.5C 957.167,2101.83 957.167,2102.17 958.5,2102.5C 959.757,2104.37 959.424,2106.03 957.5,2107.5C 957.709,2108.09 958.043,2108.59 958.5,2109C 956.783,2113.04 955.783,2117.38 955.5,2122C 957.125,2124.14 956.792,2125.8 954.5,2127C 954.957,2127.41 955.291,2127.91 955.5,2128.5C 954.412,2132.54 953.746,2136.37 953.5,2140C 953.755,2141.33 954.422,2142.33 955.5,2143C 953.864,2144.43 952.864,2146.27 952.5,2148.5C 952.633,2151.57 952.633,2154.57 952.5,2157.5C 950.027,2159.1 950.027,2160.6 952.5,2162C 951.57,2163.19 950.903,2164.53 950.5,2166C 950.783,2170.57 951.117,2175.41 951.5,2180.5C 950.5,2181.33 949.5,2182.17 948.5,2183C 948.331,2185.32 948.997,2187.66 950.5,2190C 948.415,2196.66 947.082,2203.5 946.5,2210.5C 947.535,2215.65 947.535,2220.49 946.5,2225C 945.833,2225.33 945.167,2225.67 944.5,2226C 946.394,2227.1 947.061,2228.43 946.5,2230C 944.184,2232.15 943.85,2234.65 945.5,2237.5C 945.154,2238.7 944.654,2238.7 944,2237.5C 943.833,2238.17 943.667,2238.83 943.5,2239.5C 943.958,2243.92 943.958,2248.25 943.5,2252.5C 941.619,2254.27 941.286,2256.43 942.5,2259C 941.734,2263.73 941.068,2268.23 940.5,2272.5C 941.441,2272.49 942.108,2272.99 942.5,2274C 942.223,2275.89 941.223,2277.22 939.5,2278C 939.706,2280.22 940.039,2282.39 940.5,2284.5C 940.078,2288.71 939.078,2292.71 937.5,2296.5C 939.039,2300.28 939.206,2303.95 938,2307.5C 937.667,2307.17 937.333,2306.83 937,2306.5C 934.896,2308.74 932.562,2309.74 930,2309.5C 928.458,2311.3 926.791,2312.97 925,2314.5C 922.822,2311.53 921.656,2311.86 921.5,2315.5C 919.549,2315.23 918.049,2315.89 917,2317.5C 915.413,2316.27 914.079,2316.61 913,2318.5C 912.667,2318.17 912.333,2317.83 912,2317.5C 908.325,2319.06 904.991,2321.06 902,2323.5C 901.374,2321.01 900.541,2321.01 899.5,2323.5C 898.833,2323.17 898.167,2322.83 897.5,2322.5C 894.275,2324.43 891.108,2326.43 888,2328.5C 885.266,2328.37 882.599,2328.37 880,2328.5C 878.676,2329.88 877.343,2330.21 876,2329.5C 869.671,2331.17 863.338,2332.84 857,2334.5C 855.755,2334.54 854.422,2334.21 853,2333.5C 847.715,2335.81 842.548,2336.48 837.5,2335.5C 835.941,2336.07 834.441,2336.74 833,2337.5C 830.532,2337.25 828.032,2336.91 825.5,2336.5C 822.435,2338.89 819.435,2338.89 816.5,2336.5C 807.731,2336.6 799.064,2336.6 790.5,2336.5C 789.353,2336.82 788.519,2337.48 788,2338.5C 785.494,2336.18 782.66,2335.84 779.5,2337.5C 777.821,2336.22 775.987,2335.22 774,2334.5C 773.667,2335.17 773.333,2335.83 773,2336.5C 771.163,2336.33 769.163,2335.67 767,2334.5C 762.007,2335.18 756.841,2335.18 751.5,2334.5C 750.304,2334.15 750.304,2333.65 751.5,2333C 738.205,2330.95 725.539,2327.45 713.5,2322.5C 711.563,2321.07 709.73,2319.4 708,2317.5C 707.667,2317.83 707.333,2318.17 707,2318.5C 698.825,2311 696.825,2302 701,2291.5C 703.091,2288.74 704.758,2285.74 706,2282.5C 706.333,2282.83 706.667,2283.17 707,2283.5C 711.5,2277.67 716.333,2272.17 721.5,2267C 726.93,2263.29 731.93,2259.13 736.5,2254.5C 737.097,2254.26 737.43,2253.76 737.5,2253C 735.585,2245.98 732.919,2239.32 729.5,2233C 729.833,2232.67 730.167,2232.33 730.5,2232C 729.529,2230.8 728.529,2230.3 727.5,2230.5C 728.428,2229.23 728.595,2227.9 728,2226.5C 725.617,2221.36 723.617,2216.02 722,2210.5C 721.5,2209.33 720.667,2208.5 719.5,2208C 719.833,2207.67 720.167,2207.33 720.5,2207C 717.831,2201.91 715.164,2196.91 712.5,2192C 712.833,2191.67 713.167,2191.33 713.5,2191C 711.052,2186.76 709.386,2182.59 708.5,2178.5C 703.466,2166.41 698.8,2154.08 694.5,2141.5C 694.709,2140.91 695.043,2140.41 695.5,2140C 690.749,2129.42 686.583,2118.59 683,2107.5C 682.538,2103.75 681.372,2100.25 679.5,2097C 679.833,2096.67 680.167,2096.33 680.5,2096C 679.526,2093.71 678.193,2091.71 676.5,2090C 676.063,2087.78 676.063,2085.45 676.5,2083C 674.983,2080.8 673.65,2078.46 672.5,2076C 672.833,2075.67 673.167,2075.33 673.5,2075C 670.207,2067.57 668.04,2059.73 667,2051.5C 665.688,2049.04 664.522,2046.54 663.5,2044C 663.644,2039.72 662.477,2035.56 660,2031.5C 659.667,2028.83 659.333,2026.17 659,2023.5C 656.79,2022.37 656.29,2020.87 657.5,2019C 655.925,2011.35 653.592,2004.02 650.5,1997C 650.957,1996.59 651.291,1996.09 651.5,1995.5C 650.41,1993.64 649.41,1991.8 648.5,1990C 648.957,1989.59 649.291,1989.09 649.5,1988.5C 647.353,1981.91 645.519,1975.24 644,1968.5C 643.535,1967.07 642.701,1965.9 641.5,1965C 641.957,1964.59 642.291,1964.09 642.5,1963.5C 637.813,1947.58 633.813,1931.42 630.5,1915C 628.57,1898.65 625.57,1882.65 621.5,1867C 622.051,1865.6 622.384,1864.27 622.5,1863C 621.342,1859.53 620.176,1856.03 619,1852.5C 618.413,1842.56 616.913,1833.06 614.5,1824C 614.957,1823.59 615.291,1823.09 615.5,1822.5C 614.702,1817.27 613.702,1812.1 612.5,1807C 612.833,1806.67 613.167,1806.33 613.5,1806C 612.643,1805.31 611.977,1804.48 611.5,1803.5C 612.256,1801.55 612.589,1799.72 612.5,1798C 611.27,1791.27 609.936,1784.6 608.5,1778C 609.167,1777 609.833,1776 610.5,1775C 609.597,1772.22 608.931,1769.39 608.5,1766.5C 608.322,1761.48 608.655,1756.65 609.5,1752C 608.833,1750.67 608.167,1749.33 607.5,1748C 608.167,1745.33 608.833,1742.67 609.5,1740C 608.572,1739.61 607.905,1738.95 607.5,1738C 608.327,1730.56 608.327,1722.39 607.5,1713.5C 609.538,1710.79 609.538,1708.29 607.5,1706C 608.833,1704.33 608.833,1702.67 607.5,1701C 608.574,1700.26 609.241,1699.26 609.5,1698C 608.833,1697.33 608.167,1696.67 607.5,1696C 607.899,1694.27 608.566,1692.77 609.5,1691.5C 656.827,1754.67 714.827,1805.5 783.5,1844C 807.508,1857.67 832.842,1868.01 859.5,1875C 877.319,1883.03 895.985,1887.36 915.5,1888C 946.091,1894.97 977.091,1899.3 1008.5,1901C 1064.77,1905.11 1119.77,1899.11 1173.5,1883C 1197.96,1873.48 1222.3,1863.81 1246.5,1854C 1259.15,1846.03 1271.81,1838.03 1284.5,1830C 1307.92,1812.24 1329.76,1792.74 1350,1771.5C 1378.15,1735.18 1400.98,1695.85 1418.5,1653.5 Z"/></g>
<g><path style="opacity:0.043" fill="#a6c3dc" d="M 1419.5,1656.5 C 1420.83,1657.17 1420.83,1657.83 1419.5,1658.5C 1419.5,1657.83 1419.5,1657.17 1419.5,1656.5 Z"/></g>
<g><path style="opacity:0.008" fill="#a6c3dc" d="M 1423.5,1701.5 C 1424.83,1702.17 1424.83,1702.17 1423.5,1701.5 Z"/></g>
<g><path style="opacity:0.016" fill="#a6c3dc" d="M 1423.5,1704.5 C 1424.83,1705.17 1424.83,1705.17 1423.5,1704.5 Z"/></g>
<g><path style="opacity:0.057" fill="#a6c3dc" d="M 1426.5,1753.5 C 1426.37,1752.76 1426.54,1752.09 1427,1751.5C 1427.69,1752.44 1427.53,1753.1 1426.5,1753.5 Z"/></g>
<g><path style="opacity:0.035" fill="#a6c3dc" d="M 1426.5,1762.5 C 1426.5,1762.17 1426.5,1761.83 1426.5,1761.5C 1429.17,1761.83 1429.17,1762.17 1426.5,1762.5 Z"/></g>
<g><path style="opacity:0.022" fill="#a6c3dc" d="M 1427.5,1780.5 C 1427.5,1780.17 1427.5,1779.83 1427.5,1779.5C 1430.17,1779.83 1430.17,1780.17 1427.5,1780.5 Z"/></g>
<g><path style="opacity:0.02" fill="#a6c3dc" d="M 1421.5,1899.5 C 1422.83,1900.17 1422.83,1900.17 1421.5,1899.5 Z"/></g>
<g><path style="opacity:0.035" fill="#a6c3dc" d="M 1409.5,1967.5 C 1410.83,1968.17 1410.83,1968.17 1409.5,1967.5 Z"/></g>
<g><path style="opacity:0.012" fill="#a6c3dc" d="M 1061.5,2041.5 C 1062.83,2042.17 1062.83,2042.17 1061.5,2041.5 Z"/></g>
<g><path style="opacity:0.016" fill="#a6c3dc" d="M 1382.5,2061.5 C 1383.83,2062.17 1383.83,2062.17 1382.5,2061.5 Z"/></g>
<g><path style="opacity:0.027" fill="#a6c3dc" d="M 958.5,2101.5 C 959.833,2102.17 959.833,2102.17 958.5,2101.5 Z"/></g>
<g><path style="opacity:0.004" fill="#a6c3dc" d="M 708.5,2178.5 C 707.833,2179.17 707.833,2179.17 708.5,2178.5 Z"/></g>
<g><path style="opacity:0.012" fill="#a6c3dc" d="M 1321.5,2206.5 C 1322.83,2207.17 1322.83,2207.17 1321.5,2206.5 Z"/></g>
<g><path style="opacity:0.035" fill="#a6c3dc" d="M 1311.5,2225.5 C 1312.83,2226.17 1312.83,2226.17 1311.5,2225.5 Z"/></g>
<g><path style="opacity:0.004" fill="#a6c3dc" d="M 736.5,2254.5 C 735.833,2253.17 735.833,2253.17 736.5,2254.5 Z"/></g>
<g><path style="opacity:0.008" fill="#a6c3dc" d="M 1298.5,2253.5 C 1299.83,2254.17 1299.83,2254.17 1298.5,2253.5 Z"/></g>
<g><path style="opacity:0.012" fill="#a6c3dc" d="M 942.5,2263.5 C 943.833,2264.17 943.833,2264.17 942.5,2263.5 Z"/></g>
<g><path style="opacity:0.008" fill="#a6c3dc" d="M 713.5,2322.5 C 712.833,2323.17 712.833,2323.17 713.5,2322.5 Z"/></g>
<g><path style="opacity:0.008" fill="#a6c3dc" d="M 1181.5,2338.5 C 1181.83,2338.5 1182.17,2338.5 1182.5,2338.5C 1182.31,2339.17 1181.98,2339.17 1181.5,2338.5 Z"/></g>
<g><path style="opacity:0.008" fill="#a6c3dc" d="M 1185.5,2338.5 C 1184.83,2339.17 1184.83,2339.17 1185.5,2338.5 Z"/></g>
<g><path style="opacity:0.008" fill="#a6c3dc" d="M 1237.5,2342.5 C 1238.83,2343.17 1238.83,2343.17 1237.5,2342.5 Z"/></g>
</svg>
